<svg id="svg" version="1.1" xmlns="http://www.w3.org/2000/svg" viewBox="0 0 1000 782" style="display: block;">
  <circle cx="500" cy="391" r="391" fill="#DEAB43"/>
  <g transform="translate(500, 415) scale(0.65) translate(-499, -391)"> 
    <path d="M0,0 L282,0 L293,12 L300,20 L312,34 L323,46 L330,54 L342,68 L353,80 L360,88 L372,102 L383,114 L390,122 L402,136 L413,148 L420,156 L432,170 L443,182 L450,190 L462,204 L473,216 L479,223 L477,227 L465,241 L453,255 L441,269 L428,284 L416,298 L404,312 L391,327 L379,341 L366,356 L354,370 L342,384 L329,399 L317,413 L305,427 L292,442 L280,456 L268,470 L255,485 L243,499 L231,513 L218,528 L206,542 L194,556 L181,571 L169,585 L156,600 L144,614 L132,628 L119,643 L107,657 L95,671 L82,686 L70,700 L58,714 L45,729 L33,743 L21,757 L8,772 L0,781 L-1,781 L-1,102 Z M109,109 L108,203 L312,203 L310,199 L300,188 L291,177 L280,165 L271,154 L261,143 L252,132 L241,120 L232,109 Z M106,310 L106,489 L111,484 L122,472 L131,461 L141,450 L150,439 L160,428 L169,417 L179,406 L188,395 L199,383 L208,372 L218,361 L227,350 L237,339 L246,328 L256,317 L258,313 L248,312 L146,310 Z " transform="translate(517,0)" style="fill: #FFFFFF;"/>
    <path d="M0,0 L283,0 L283,153 L271,165 L263,172 L247,187 L234,199 L221,211 L208,223 L193,237 L181,248 L178,251 L176,251 L176,109 L55,109 L48,116 L41,124 L30,136 L21,146 L12,156 L1,168 L-8,178 L-17,188 L-28,200 L-37,210 L-46,220 L-48,224 L-39,235 L-26,250 L-15,263 L-3,277 L6,288 L19,303 L30,316 L41,329 L52,342 L64,356 L73,367 L86,382 L97,395 L108,408 L120,422 L129,433 L142,448 L153,461 L164,474 L175,487 L176,371 L282,265 L283,265 L283,782 L278,778 L269,767 L256,752 L244,738 L235,727 L222,712 L210,698 L201,687 L192,677 L183,666 L170,651 L161,640 L148,625 L136,611 L127,600 L118,590 L109,579 L96,564 L87,553 L74,538 L62,524 L53,513 L44,503 L35,492 L22,477 L13,466 L0,451 L-12,437 L-21,426 L-30,416 L-39,405 L-52,390 L-61,379 L-74,364 L-86,350 L-97,337 L-109,323 L-118,312 L-131,297 L-143,283 L-152,272 L-161,262 L-170,251 L-183,236 L-192,225 L-193,221 L-181,207 L-171,196 L-162,185 L-150,172 L-141,161 L-129,148 L-120,137 L-108,124 L-99,113 L-88,101 L-79,90 L-67,77 L-58,66 L-46,53 L-37,42 L-25,29 L-16,18 L-4,5 Z " transform="translate(195,0)" style="fill: #FFFFFF;"/>
    <path d="M0,0 Z M-1,1 Z M-2,2 Z M-3,3 Z M-4,4 Z M-5,5 Z M-6,6 Z M-7,7 Z M-8,8 Z M-9,9 Z M-10,10 Z M-11,11 Z M-12,12 Z M-13,13 Z M-14,14 Z M-15,15 Z M-16,16 Z M-17,17 Z M-18,18 Z M-19,19 Z M-20,20 Z M-21,21 Z M-22,22 Z M-23,23 Z M-24,24 Z M-25,25 Z M-26,26 Z M-27,27 Z M-28,28 Z M-29,29 Z M-30,30 Z M-31,31 Z M-32,32 Z M-33,33 Z M-34,34 Z M-35,35 Z M-36,36 Z M-37,37 Z M-38,38 Z M-39,39 Z M-40,40 Z M-41,41 Z M-42,42 Z M-43,43 Z M-44,44 Z M-45,45 Z M-46,46 Z M-47,47 Z M-48,48 Z M-49,49 Z M-50,50 Z M-51,51 Z M-52,52 Z M-53,53 Z M-54,54 Z M-55,55 Z M-56,56 Z M-57,57 Z M-58,58 Z M-59,59 Z M-60,60 Z M-61,61 Z M-62,62 Z M-63,63 Z M-64,64 Z M-65,65 Z M-66,66 Z M-67,67 Z M-68,68 Z M-69,69 Z M-70,70 Z M-71,71 Z M-72,72 Z M-73,73 Z M-74,74 Z M-75,75 Z M-76,76 Z M-77,77 Z M-78,78 Z M-79,79 Z M-80,80 Z M-81,81 Z M-82,82 Z M-83,83 Z M-84,84 Z M-85,85 Z M-86,86 Z M-87,87 Z M-88,88 Z M-89,89 Z M-90,90 Z M-91,91 Z M-92,92 Z M-93,93 Z M-94,94 Z M-95,95 Z M-96,96 Z M-97,97 Z M-98,98 Z M-99,99 Z M-100,100 Z M-101,101 Z M-102,102 Z M-103,103 Z M-104,104 Z M-105,105 Z M-106,106 Z " transform="translate(477,264)" style="fill: #FFFFFF;"/>
  </g>
</svg>